solid Exported from Blender-3.2.1
facet normal 0.004228 0.950936 0.309359
outer loop
vertex -2.000000 0.404509 0.293893
vertex -1.229450 0.404509 0.283362
vertex -1.248590 0.500000 -0.009907
endloop
endfacet
facet normal 0.004074 0.951049 0.309014
outer loop
vertex -2.000000 0.404509 0.293893
vertex -1.248590 0.500000 -0.009907
vertex -2.000000 0.500000 0.000000
endloop
endfacet
facet normal 0.011292 0.587281 0.809305
outer loop
vertex -2.000000 0.154509 0.475528
vertex -1.217621 0.154509 0.464612
vertex -1.229450 0.404509 0.283362
endloop
endfacet
facet normal 0.011056 0.587750 0.808967
outer loop
vertex -2.000000 0.154509 0.475528
vertex -1.229450 0.404509 0.283362
vertex -2.000000 0.404509 0.293893
endloop
endfacet
facet normal 0.013952 0.000000 0.999903
outer loop
vertex -2.000000 -0.154509 0.475528
vertex -1.217621 -0.154509 0.464612
vertex -1.217621 0.154509 0.464612
endloop
endfacet
facet normal 0.013952 0.000000 0.999903
outer loop
vertex -2.000000 -0.154509 0.475528
vertex -1.217621 0.154509 0.464612
vertex -2.000000 0.154509 0.475528
endloop
endfacet
facet normal 0.011061 -0.587275 0.809312
outer loop
vertex -2.000000 -0.404509 0.293893
vertex -1.229450 -0.404509 0.283362
vertex -1.217621 -0.154509 0.464612
endloop
endfacet
facet normal 0.011288 -0.587748 0.808965
outer loop
vertex -2.000000 -0.404509 0.293893
vertex -1.217621 -0.154509 0.464612
vertex -2.000000 -0.154509 0.475528
endloop
endfacet
facet normal 0.004079 -0.950934 0.309368
outer loop
vertex -2.000000 -0.500000 -0.000000
vertex -1.248590 -0.500000 -0.009907
vertex -1.229450 -0.404509 0.283362
endloop
endfacet
facet normal 0.004223 -0.951048 0.309014
outer loop
vertex -2.000000 -0.500000 -0.000000
vertex -1.229450 -0.404509 0.283362
vertex -2.000000 -0.404509 0.293893
endloop
endfacet
facet normal -0.003922 -0.950931 -0.309377
outer loop
vertex -2.000000 -0.404509 -0.293893
vertex -1.267730 -0.404509 -0.303176
vertex -1.248590 -0.500000 -0.009907
endloop
endfacet
facet normal -0.004074 -0.951048 -0.309015
outer loop
vertex -2.000000 -0.404509 -0.293893
vertex -1.248590 -0.500000 -0.009907
vertex -2.000000 -0.500000 -0.000000
endloop
endfacet
facet normal -0.009996 -0.587248 -0.809345
outer loop
vertex -2.000000 -0.154508 -0.475528
vertex -1.279559 -0.154508 -0.484426
vertex -1.267730 -0.404509 -0.303176
endloop
endfacet
facet normal -0.010256 -0.587754 -0.808975
outer loop
vertex -2.000000 -0.154508 -0.475528
vertex -1.267730 -0.404509 -0.303176
vertex -2.000000 -0.404509 -0.293893
endloop
endfacet
facet normal -0.012349 0.000000 -0.999924
outer loop
vertex -2.000000 0.154509 -0.475528
vertex -1.279559 0.154509 -0.484426
vertex -1.279559 -0.154508 -0.484426
endloop
endfacet
facet normal -0.012349 0.000000 -0.999924
outer loop
vertex -2.000000 0.154509 -0.475528
vertex -1.279559 -0.154508 -0.484426
vertex -2.000000 -0.154508 -0.475528
endloop
endfacet
facet normal -0.010260 0.587255 -0.809337
outer loop
vertex -2.000000 0.404509 -0.293893
vertex -1.267730 0.404509 -0.303176
vertex -1.279559 0.154509 -0.484426
endloop
endfacet
facet normal -0.009991 0.587756 -0.808976
outer loop
vertex -2.000000 0.404509 -0.293893
vertex -1.279559 0.154509 -0.484426
vertex -2.000000 0.154509 -0.475528
endloop
endfacet
facet normal -0.004079 0.950934 -0.309368
outer loop
vertex -2.000000 0.500000 0.000000
vertex -1.248590 0.500000 -0.009907
vertex -1.267730 0.404509 -0.303176
endloop
endfacet
facet normal -0.003918 0.951049 -0.309014
outer loop
vertex -2.000000 0.500000 0.000000
vertex -1.267730 0.404509 -0.303176
vertex -2.000000 0.404509 -0.293893
endloop
endfacet
facet normal 0.037686 0.950243 0.309223
outer loop
vertex -1.229450 0.404509 0.283362
vertex -0.657920 0.404509 0.213708
vertex -0.731901 0.500000 -0.070721
endloop
endfacet
facet normal 0.036166 0.950934 0.307274
outer loop
vertex -1.229450 0.404509 0.283362
vertex -0.731901 0.500000 -0.070721
vertex -1.248590 0.500000 -0.009907
endloop
endfacet
facet normal 0.099909 0.584473 0.805238
outer loop
vertex -1.217621 0.154509 0.464612
vertex -0.612198 0.154509 0.389495
vertex -0.657920 0.404509 0.213708
endloop
endfacet
facet normal 0.097926 0.587179 0.803511
outer loop
vertex -1.217621 0.154509 0.464612
vertex -0.657920 0.404509 0.213708
vertex -1.229450 0.404509 0.283362
endloop
endfacet
facet normal 0.123129 0.000000 0.992391
outer loop
vertex -1.217621 -0.154509 0.464612
vertex -0.612198 -0.154509 0.389495
vertex -0.612198 0.154509 0.389495
endloop
endfacet
facet normal 0.123130 0.000000 0.992391
outer loop
vertex -1.217621 -0.154509 0.464612
vertex -0.612198 0.154509 0.389495
vertex -1.217621 0.154509 0.464612
endloop
endfacet
facet normal 0.098172 -0.584363 0.805532
outer loop
vertex -1.229450 -0.404509 0.283362
vertex -0.657920 -0.404509 0.213708
vertex -0.612198 -0.154509 0.389495
endloop
endfacet
facet normal 0.099672 -0.587132 0.803332
outer loop
vertex -1.229450 -0.404509 0.283362
vertex -0.612198 -0.154509 0.389495
vertex -1.217621 -0.154509 0.464612
endloop
endfacet
facet normal 0.036432 -0.950191 0.309533
outer loop
vertex -1.248590 -0.500000 -0.009907
vertex -0.731901 -0.500000 -0.070721
vertex -0.657920 -0.404509 0.213708
endloop
endfacet
facet normal 0.037437 -0.950913 0.307184
outer loop
vertex -1.248590 -0.500000 -0.009907
vertex -0.657920 -0.404509 0.213708
vertex -1.229450 -0.404509 0.283362
endloop
endfacet
facet normal -0.034876 -0.950124 -0.309915
outer loop
vertex -1.267730 -0.404509 -0.303176
vertex -0.805881 -0.404508 -0.355150
vertex -0.731901 -0.500000 -0.070721
endloop
endfacet
facet normal -0.036166 -0.950934 -0.307274
outer loop
vertex -1.267730 -0.404509 -0.303176
vertex -0.731901 -0.500000 -0.070721
vertex -1.248590 -0.500000 -0.009907
endloop
endfacet
facet normal -0.087732 -0.583658 -0.807246
outer loop
vertex -1.279559 -0.154508 -0.484426
vertex -0.851604 -0.154508 -0.530937
vertex -0.805881 -0.404508 -0.355150
endloop
endfacet
facet normal -0.090505 -0.587362 -0.804248
outer loop
vertex -1.279559 -0.154508 -0.484426
vertex -0.805881 -0.404508 -0.355150
vertex -1.267730 -0.404509 -0.303176
endloop
endfacet
facet normal -0.108045 0.000000 -0.994146
outer loop
vertex -1.279559 0.154509 -0.484426
vertex -0.851604 0.154509 -0.530936
vertex -0.851604 -0.154508 -0.530937
endloop
endfacet
facet normal -0.108044 0.000000 -0.994146
outer loop
vertex -1.279559 0.154509 -0.484426
vertex -0.851604 -0.154508 -0.530937
vertex -1.279559 -0.154508 -0.484426
endloop
endfacet
facet normal -0.090788 0.583871 -0.806754
outer loop
vertex -1.267730 0.404509 -0.303176
vertex -0.805881 0.404509 -0.355150
vertex -0.851604 0.154509 -0.530936
endloop
endfacet
facet normal -0.087438 0.587428 -0.804539
outer loop
vertex -1.267730 0.404509 -0.303176
vertex -0.851604 0.154509 -0.530936
vertex -1.279559 0.154509 -0.484426
endloop
endfacet
facet normal -0.036432 0.950191 -0.309532
outer loop
vertex -1.248590 0.500000 -0.009907
vertex -0.731901 0.500000 -0.070721
vertex -0.805881 0.404509 -0.355150
endloop
endfacet
facet normal -0.034591 0.950957 -0.307384
outer loop
vertex -1.248590 0.500000 -0.009907
vertex -0.805881 0.404509 -0.355150
vertex -1.267730 0.404509 -0.303176
endloop
endfacet
facet normal 0.122743 0.949084 0.290127
outer loop
vertex -0.657920 0.404509 0.213708
vertex -0.227661 0.404509 0.031681
vertex -0.395062 0.500000 -0.209876
endloop
endfacet
facet normal 0.119002 0.950191 0.288055
outer loop
vertex -0.657920 0.404509 0.213708
vertex -0.395062 0.500000 -0.209876
vertex -0.731901 0.500000 -0.070721
endloop
endfacet
facet normal 0.320130 0.579865 0.749182
outer loop
vertex -0.612198 0.154509 0.389495
vertex -0.124202 0.154509 0.180971
vertex -0.227661 0.404509 0.031681
endloop
endfacet
facet normal 0.316373 0.583683 0.747812
outer loop
vertex -0.612198 0.154509 0.389495
vertex -0.227661 0.404509 0.031681
vertex -0.657920 0.404509 0.213708
endloop
endfacet
facet normal 0.392936 0.000000 0.919566
outer loop
vertex -0.612198 -0.154509 0.389495
vertex -0.124202 -0.154509 0.180971
vertex -0.124202 0.154509 0.180971
endloop
endfacet
facet normal 0.392936 0.000000 0.919566
outer loop
vertex -0.612198 -0.154509 0.389495
vertex -0.124202 0.154509 0.180971
vertex -0.612198 0.154509 0.389495
endloop
endfacet
facet normal 0.317516 -0.579579 0.750514
outer loop
vertex -0.657920 -0.404509 0.213708
vertex -0.227661 -0.404508 0.031681
vertex -0.124202 -0.154509 0.180971
endloop
endfacet
facet normal 0.319115 -0.583478 0.746806
outer loop
vertex -0.657920 -0.404509 0.213708
vertex -0.124202 -0.154509 0.180971
vertex -0.612198 -0.154509 0.389495
endloop
endfacet
facet normal 0.120479 -0.948914 0.291628
outer loop
vertex -0.731901 -0.500000 -0.070721
vertex -0.395062 -0.500000 -0.209877
vertex -0.227661 -0.404508 0.031681
endloop
endfacet
facet normal 0.121568 -0.950079 0.287351
outer loop
vertex -0.731901 -0.500000 -0.070721
vertex -0.227661 -0.404508 0.031681
vertex -0.657920 -0.404509 0.213708
endloop
endfacet
facet normal -0.116416 -0.948591 -0.294316
outer loop
vertex -0.805881 -0.404508 -0.355150
vertex -0.562462 -0.404508 -0.451434
vertex -0.395062 -0.500000 -0.209877
endloop
endfacet
facet normal -0.119002 -0.950191 -0.288056
outer loop
vertex -0.805881 -0.404508 -0.355150
vertex -0.395062 -0.500000 -0.209877
vertex -0.731901 -0.500000 -0.070721
endloop
endfacet
facet normal -0.287600 -0.575972 -0.765207
outer loop
vertex -0.851604 -0.154508 -0.530937
vertex -0.665921 -0.154508 -0.600725
vertex -0.562462 -0.404508 -0.451434
endloop
endfacet
facet normal -0.298339 -0.584905 -0.754241
outer loop
vertex -0.851604 -0.154508 -0.530937
vertex -0.562462 -0.404508 -0.451434
vertex -0.805881 -0.404508 -0.355150
endloop
endfacet
facet normal -0.351818 0.000000 -0.936068
outer loop
vertex -0.851604 0.154509 -0.530936
vertex -0.665921 0.154509 -0.600725
vertex -0.665921 -0.154508 -0.600725
endloop
endfacet
facet normal -0.351818 0.000000 -0.936068
outer loop
vertex -0.851604 0.154509 -0.530936
vertex -0.665921 -0.154508 -0.600725
vertex -0.851604 -0.154508 -0.530937
endloop
endfacet
facet normal -0.300265 0.577574 -0.759111
outer loop
vertex -0.805881 0.404509 -0.355150
vertex -0.562462 0.404509 -0.451434
vertex -0.665921 0.154509 -0.600725
endloop
endfacet
facet normal -0.285168 0.585659 -0.758738
outer loop
vertex -0.805881 0.404509 -0.355150
vertex -0.665921 0.154509 -0.600725
vertex -0.851604 0.154509 -0.530936
endloop
endfacet
facet normal -0.120478 0.948914 -0.291629
outer loop
vertex -0.731901 0.500000 -0.070721
vertex -0.395062 0.500000 -0.209876
vertex -0.562462 0.404509 -0.451434
endloop
endfacet
facet normal -0.114433 0.950372 -0.289304
outer loop
vertex -0.731901 0.500000 -0.070721
vertex -0.562462 0.404509 -0.451434
vertex -0.805881 0.404509 -0.355150
endloop
endfacet
facet normal 0.228625 0.949444 0.215142
outer loop
vertex -0.227661 0.404509 0.031681
vertex 0.057138 0.404509 -0.270967
vertex -0.190520 0.500000 -0.429203
endloop
endfacet
facet normal 0.230759 0.948914 0.215204
outer loop
vertex -0.227661 0.404509 0.031681
vertex -0.190520 0.500000 -0.429203
vertex -0.395062 0.500000 -0.209876
endloop
endfacet
facet normal 0.591811 0.580932 0.558819
outer loop
vertex -0.124202 0.154509 0.180971
vertex 0.210198 0.154509 -0.173171
vertex 0.057138 0.404509 -0.270967
endloop
endfacet
facet normal 0.593633 0.579257 0.558624
outer loop
vertex -0.124202 0.154509 0.180971
vertex 0.057138 0.404509 -0.270967
vertex -0.227661 0.404509 0.031681
endloop
endfacet
facet normal 0.727083 0.000000 0.686550
outer loop
vertex -0.124202 -0.154509 0.180971
vertex 0.210198 -0.154509 -0.173171
vertex 0.210198 0.154509 -0.173171
endloop
endfacet
facet normal 0.727083 0.000000 0.686550
outer loop
vertex -0.124202 -0.154509 0.180971
vertex 0.210198 0.154509 -0.173171
vertex -0.124202 0.154509 0.180971
endloop
endfacet
facet normal 0.592700 -0.581056 0.557746
outer loop
vertex -0.227661 -0.404508 0.031681
vertex 0.057138 -0.404509 -0.270967
vertex 0.210198 -0.154509 -0.173171
endloop
endfacet
facet normal 0.592606 -0.579396 0.559570
outer loop
vertex -0.227661 -0.404508 0.031681
vertex 0.210198 -0.154509 -0.173171
vertex -0.124202 -0.154509 0.180971
endloop
endfacet
facet normal 0.229416 -0.949523 0.213952
outer loop
vertex -0.395062 -0.500000 -0.209877
vertex -0.190520 -0.500000 -0.429203
vertex 0.057138 -0.404509 -0.270967
endloop
endfacet
facet normal 0.229590 -0.949005 0.216050
outer loop
vertex -0.395062 -0.500000 -0.209877
vertex 0.057138 -0.404509 -0.270967
vertex -0.227661 -0.404508 0.031681
endloop
endfacet
facet normal -0.231194 -0.949692 -0.211270
outer loop
vertex -0.562462 -0.404508 -0.451434
vertex -0.438177 -0.404508 -0.587439
vertex -0.190520 -0.500000 -0.429203
endloop
endfacet
facet normal -0.230759 -0.948914 -0.215204
outer loop
vertex -0.562462 -0.404508 -0.451434
vertex -0.190520 -0.500000 -0.429203
vertex -0.395062 -0.500000 -0.209877
endloop
endfacet
facet normal -0.608738 -0.583132 -0.537955
outer loop
vertex -0.665921 -0.154508 -0.600725
vertex -0.591238 -0.154508 -0.685234
vertex -0.438177 -0.404508 -0.587439
endloop
endfacet
facet normal -0.602389 -0.578016 -0.550478
outer loop
vertex -0.665921 -0.154508 -0.600725
vertex -0.438177 -0.404508 -0.587439
vertex -0.562462 -0.404508 -0.451434
endloop
endfacet
facet normal -0.749328 0.000000 -0.662199
outer loop
vertex -0.665921 0.154509 -0.600725
vertex -0.591238 0.154509 -0.685234
vertex -0.591238 -0.154508 -0.685234
endloop
endfacet
facet normal -0.749328 0.000000 -0.662199
outer loop
vertex -0.665921 0.154509 -0.600725
vertex -0.591238 -0.154508 -0.685234
vertex -0.665921 -0.154508 -0.600725
endloop
endfacet
facet normal -0.600255 0.582076 -0.548527
outer loop
vertex -0.562462 0.404509 -0.451434
vertex -0.438177 0.404509 -0.587439
vertex -0.591238 0.154509 -0.685234
endloop
endfacet
facet normal -0.612276 0.576496 -0.541082
outer loop
vertex -0.562462 0.404509 -0.451434
vertex -0.591238 0.154509 -0.685234
vertex -0.665921 0.154509 -0.600725
endloop
endfacet
facet normal -0.229416 0.949523 -0.213951
outer loop
vertex -0.395062 0.500000 -0.209876
vertex -0.190520 0.500000 -0.429203
vertex -0.438177 0.404509 -0.587439
endloop
endfacet
facet normal -0.233402 0.948700 -0.213288
outer loop
vertex -0.395062 0.500000 -0.209876
vertex -0.438177 0.404509 -0.587439
vertex -0.562462 0.404509 -0.451434
endloop
endfacet
facet normal 0.287213 0.950384 0.119497
outer loop
vertex 0.057138 0.404509 -0.270967
vertex 0.204967 0.404509 -0.626275
vertex -0.078037 0.500000 -0.705533
endloop
endfacet
facet normal 0.290549 0.949523 0.118271
outer loop
vertex 0.057138 0.404509 -0.270967
vertex -0.078037 0.500000 -0.705533
vertex -0.190520 0.500000 -0.429203
endloop
endfacet
facet normal 0.747929 0.584799 0.314027
outer loop
vertex 0.210198 0.154509 -0.173171
vertex 0.379873 0.154509 -0.577290
vertex 0.204967 0.404509 -0.626275
endloop
endfacet
facet normal 0.750856 0.581912 0.312400
outer loop
vertex 0.210198 0.154509 -0.173171
vertex 0.204967 0.404509 -0.626275
vertex 0.057138 0.404509 -0.270967
endloop
endfacet
facet normal 0.922027 0.000000 0.387124
outer loop
vertex 0.210198 -0.154509 -0.173171
vertex 0.379873 -0.154509 -0.577290
vertex 0.379873 0.154509 -0.577290
endloop
endfacet
facet normal 0.922027 0.000000 0.387124
outer loop
vertex 0.210198 -0.154509 -0.173171
vertex 0.379873 0.154509 -0.577290
vertex 0.210198 0.154509 -0.173171
endloop
endfacet
facet normal 0.748839 -0.584952 0.311562
outer loop
vertex 0.057138 -0.404509 -0.270967
vertex 0.204967 -0.404509 -0.626275
vertex 0.379873 -0.154509 -0.577290
endloop
endfacet
facet normal 0.749697 -0.582129 0.314770
outer loop
vertex 0.057138 -0.404509 -0.270967
vertex 0.379873 -0.154509 -0.577290
vertex 0.210198 -0.154509 -0.173171
endloop
endfacet
facet normal 0.287888 -0.950467 0.117188
outer loop
vertex -0.190520 -0.500000 -0.429203
vertex -0.078037 -0.500000 -0.705533
vertex 0.204967 -0.404509 -0.626275
endloop
endfacet
facet normal 0.289268 -0.949652 0.120353
outer loop
vertex -0.190520 -0.500000 -0.429203
vertex 0.204967 -0.404509 -0.626275
vertex 0.057138 -0.404509 -0.270967
endloop
endfacet
facet normal -0.289108 -0.950604 -0.112999
outer loop
vertex -0.438177 -0.404508 -0.587439
vertex -0.361041 -0.404509 -0.784791
vertex -0.078037 -0.500000 -0.705533
endloop
endfacet
facet normal -0.290549 -0.949523 -0.118271
outer loop
vertex -0.438177 -0.404508 -0.587439
vertex -0.078037 -0.500000 -0.705533
vertex -0.190520 -0.500000 -0.429203
endloop
endfacet
facet normal -0.759102 -0.586449 -0.282561
outer loop
vertex -0.591238 -0.154508 -0.685234
vertex -0.535946 -0.154508 -0.833775
vertex -0.361041 -0.404509 -0.784791
endloop
endfacet
facet normal -0.758489 -0.580349 -0.296462
outer loop
vertex -0.591238 -0.154508 -0.685234
vertex -0.361041 -0.404509 -0.784791
vertex -0.438177 -0.404508 -0.587439
endloop
endfacet
facet normal -0.937179 0.000000 -0.348848
outer loop
vertex -0.591238 0.154509 -0.685234
vertex -0.535946 0.154509 -0.833775
vertex -0.535946 -0.154508 -0.833775
endloop
endfacet
facet normal -0.937180 0.000000 -0.348847
outer loop
vertex -0.591238 0.154509 -0.685234
vertex -0.535946 -0.154508 -0.833775
vertex -0.591238 -0.154508 -0.685234
endloop
endfacet
facet normal -0.754794 0.585876 -0.295017
outer loop
vertex -0.438177 0.404509 -0.587439
vertex -0.361040 0.404509 -0.784791
vertex -0.535946 0.154509 -0.833775
endloop
endfacet
facet normal -0.764072 0.579054 -0.284412
outer loop
vertex -0.438177 0.404509 -0.587439
vertex -0.535946 0.154509 -0.833775
vertex -0.591238 0.154509 -0.685234
endloop
endfacet
facet normal -0.287888 0.950467 -0.117187
outer loop
vertex -0.190520 0.500000 -0.429203
vertex -0.078037 0.500000 -0.705533
vertex -0.361040 0.404509 -0.784791
endloop
endfacet
facet normal -0.292878 0.949272 -0.114474
outer loop
vertex -0.190520 0.500000 -0.429203
vertex -0.361040 0.404509 -0.784791
vertex -0.438177 0.404509 -0.587439
endloop
endfacet
facet normal 0.305506 0.950864 0.050241
outer loop
vertex 0.204967 0.404509 -0.626275
vertex 0.267794 0.404509 -1.008311
vertex -0.024691 0.500000 -1.037037
endloop
endfacet
facet normal 0.306878 0.950467 0.049383
outer loop
vertex 0.204967 0.404509 -0.626275
vertex -0.024691 0.500000 -1.037037
vertex -0.078037 0.500000 -0.705533
endloop
endfacet
facet normal 0.798684 0.586927 0.132746
outer loop
vertex 0.379873 0.154509 -0.577290
vertex 0.448560 0.154509 -0.990558
vertex 0.267794 0.404509 -1.008311
endloop
endfacet
facet normal 0.799963 0.585450 0.131557
outer loop
vertex 0.379873 0.154509 -0.577290
vertex 0.267794 0.404509 -1.008311
vertex 0.204967 0.404509 -0.626275
endloop
endfacet
facet normal 0.986468 0.000000 0.163956
outer loop
vertex 0.379873 -0.154509 -0.577290
vertex 0.448560 -0.154509 -0.990558
vertex 0.448560 0.154509 -0.990558
endloop
endfacet
facet normal 0.986468 0.000000 0.163956
outer loop
vertex 0.379873 -0.154509 -0.577290
vertex 0.448560 0.154509 -0.990558
vertex 0.379873 0.154509 -0.577290
endloop
endfacet
facet normal 0.798878 -0.586969 0.131378
outer loop
vertex 0.204967 -0.404509 -0.626275
vertex 0.267794 -0.404509 -1.008311
vertex 0.448560 -0.154509 -0.990558
endloop
endfacet
facet normal 0.799686 -0.585522 0.132912
outer loop
vertex 0.204967 -0.404509 -0.626275
vertex 0.448560 -0.154509 -0.990558
vertex 0.379873 -0.154509 -0.577290
endloop
endfacet
facet normal 0.305617 -0.950884 0.049179
outer loop
vertex -0.078037 -0.500000 -0.705533
vertex -0.024691 -0.500000 -1.037037
vertex 0.267794 -0.404509 -1.008311
endloop
endfacet
facet normal 0.306599 -0.950502 0.050421
outer loop
vertex -0.078037 -0.500000 -0.705533
vertex 0.267794 -0.404509 -1.008311
vertex 0.204967 -0.404509 -0.626275
endloop
endfacet
facet normal -0.305767 -0.950909 -0.047735
outer loop
vertex -0.361041 -0.404509 -0.784791
vertex -0.317177 -0.404508 -1.065763
vertex -0.024691 -0.500000 -1.037037
endloop
endfacet
facet normal -0.306878 -0.950467 -0.049383
outer loop
vertex -0.361041 -0.404509 -0.784791
vertex -0.024691 -0.500000 -1.037037
vertex -0.078037 -0.500000 -0.705533
endloop
endfacet
facet normal -0.800200 -0.587242 -0.121768
outer loop
vertex -0.535946 -0.154508 -0.833775
vertex -0.497943 -0.154508 -1.083516
vertex -0.317177 -0.404508 -1.065763
endloop
endfacet
facet normal -0.801262 -0.585092 -0.125089
outer loop
vertex -0.535946 -0.154508 -0.833775
vertex -0.317177 -0.404508 -1.065763
vertex -0.361041 -0.404509 -0.784791
endloop
endfacet
facet normal -0.988619 0.000000 -0.150440
outer loop
vertex -0.535946 0.154509 -0.833775
vertex -0.497943 0.154509 -1.083516
vertex -0.497943 -0.154508 -1.083516
endloop
endfacet
facet normal -0.988619 0.000000 -0.150440
outer loop
vertex -0.535946 0.154509 -0.833775
vertex -0.497943 -0.154508 -1.083516
vertex -0.535946 -0.154508 -0.833775
endloop
endfacet
facet normal -0.799783 0.587161 -0.124858
outer loop
vertex -0.361040 0.404509 -0.784791
vertex -0.317177 0.404509 -1.065763
vertex -0.497943 0.154509 -1.083516
endloop
endfacet
facet normal -0.801865 0.584913 -0.122022
outer loop
vertex -0.361040 0.404509 -0.784791
vertex -0.497943 0.154509 -1.083516
vertex -0.535946 0.154509 -0.833775
endloop
endfacet
facet normal -0.305617 0.950884 -0.049180
outer loop
vertex -0.078037 0.500000 -0.705533
vertex -0.024691 0.500000 -1.037037
vertex -0.317177 0.404509 -1.065763
endloop
endfacet
facet normal -0.307257 0.950417 -0.047967
outer loop
vertex -0.078037 0.500000 -0.705533
vertex -0.317177 0.404509 -1.065763
vertex -0.361040 0.404509 -0.784791
endloop
endfacet
facet normal 0.308844 0.951043 0.011482
outer loop
vertex 0.267794 0.404509 -1.008311
vertex 0.288956 0.404509 -1.577527
vertex -0.004877 0.500000 -1.583448
endloop
endfacet
facet normal 0.309345 0.950884 0.011218
outer loop
vertex 0.267794 0.404509 -1.008311
vertex -0.004877 0.500000 -1.583448
vertex -0.024691 0.500000 -1.037037
endloop
endfacet
facet normal 0.808485 0.587726 0.030485
outer loop
vertex 0.448560 0.154509 -0.990558
vertex 0.470554 0.154509 -1.573867
vertex 0.288956 0.404509 -1.577527
endloop
endfacet
facet normal 0.808973 0.587076 0.030075
outer loop
vertex 0.448560 0.154509 -0.990558
vertex 0.288956 0.404509 -1.577527
vertex 0.267794 0.404509 -1.008311
endloop
endfacet
facet normal 0.999290 0.000000 0.037680
outer loop
vertex 0.448560 -0.154509 -0.990558
vertex 0.470554 -0.154509 -1.573867
vertex 0.470554 0.154509 -1.573867
endloop
endfacet
facet normal 0.999290 0.000000 0.037680
outer loop
vertex 0.448560 -0.154509 -0.990558
vertex 0.470554 0.154509 -1.573867
vertex 0.448560 0.154509 -0.990558
endloop
endfacet
facet normal 0.808499 -0.587730 0.030057
outer loop
vertex 0.267794 -0.404509 -1.008311
vertex 0.288956 -0.404509 -1.577527
vertex 0.470554 -0.154509 -1.573867
endloop
endfacet
facet normal 0.808948 -0.587088 0.030502
outer loop
vertex 0.267794 -0.404509 -1.008311
vertex 0.470554 -0.154509 -1.573867
vertex 0.448560 -0.154509 -0.990558
endloop
endfacet
facet normal 0.308850 -0.951045 0.011200
outer loop
vertex -0.024691 -0.500000 -1.037037
vertex -0.004877 -0.500000 -1.583448
vertex 0.288956 -0.404509 -1.577527
endloop
endfacet
facet normal 0.309320 -0.950889 0.011499
outer loop
vertex -0.024691 -0.500000 -1.037037
vertex 0.288956 -0.404509 -1.577527
vertex 0.267794 -0.404509 -1.008311
endloop
endfacet
facet normal -0.308857 -0.951046 -0.010893
outer loop
vertex -0.317177 -0.404508 -1.065763
vertex -0.298710 -0.404508 -1.589369
vertex -0.004877 -0.500000 -1.583448
endloop
endfacet
facet normal -0.309346 -0.950884 -0.011217
outer loop
vertex -0.317177 -0.404508 -1.065763
vertex -0.004877 -0.500000 -1.583448
vertex -0.024691 -0.500000 -1.037037
endloop
endfacet
facet normal -0.808562 -0.587745 -0.027983
outer loop
vertex -0.497943 -0.154508 -1.083516
vertex -0.480309 -0.154508 -1.593028
vertex -0.298710 -0.404508 -1.589369
endloop
endfacet
facet normal -0.809062 -0.587030 -0.028534
outer loop
vertex -0.497943 -0.154508 -1.083516
vertex -0.298710 -0.404508 -1.589369
vertex -0.317177 -0.404508 -1.065763
endloop
endfacet
facet normal -0.999402 0.000000 -0.034588
outer loop
vertex -0.497943 0.154509 -1.083516
vertex -0.480309 0.154509 -1.593028
vertex -0.480309 -0.154508 -1.593028
endloop
endfacet
facet normal -0.999402 0.000000 -0.034588
outer loop
vertex -0.497943 0.154509 -1.083516
vertex -0.480309 -0.154508 -1.593028
vertex -0.497943 -0.154508 -1.083516
endloop
endfacet
facet normal -0.808546 0.587741 -0.028516
outer loop
vertex -0.317177 0.404509 -1.065763
vertex -0.298710 0.404509 -1.589369
vertex -0.480309 0.154509 -1.593028
endloop
endfacet
facet normal -0.809092 0.587014 -0.028002
outer loop
vertex -0.317177 0.404509 -1.065763
vertex -0.480309 0.154509 -1.593028
vertex -0.497943 0.154509 -1.083516
endloop
endfacet
facet normal -0.308850 0.951045 -0.011200
outer loop
vertex -0.024691 0.500000 -1.037037
vertex -0.004877 0.500000 -1.583448
vertex -0.298710 0.404509 -1.589369
endloop
endfacet
facet normal -0.309373 0.950878 -0.010911
outer loop
vertex -0.024691 0.500000 -1.037037
vertex -0.298710 0.404509 -1.589369
vertex -0.317177 0.404509 -1.065763
endloop
endfacet
facet normal 0.309015 0.951056 0.001262
outer loop
vertex 0.288956 0.404509 -1.577527
vertex 0.293587 0.404509 -2.711777
vertex -0.000305 0.500000 -2.712391
endloop
endfacet
facet normal 0.309051 0.951045 0.001252
outer loop
vertex 0.288956 0.404509 -1.577527
vertex -0.000305 0.500000 -2.712391
vertex -0.004877 0.500000 -1.583448
endloop
endfacet
facet normal 0.809011 0.587784 0.003320
outer loop
vertex 0.470554 0.154509 -1.573867
vertex 0.475222 0.154509 -2.711397
vertex 0.293587 0.404509 -2.711777
endloop
endfacet
facet normal 0.809046 0.587736 0.003304
outer loop
vertex 0.470554 0.154509 -1.573867
vertex 0.293587 0.404509 -2.711777
vertex 0.288956 0.404509 -1.577527
endloop
endfacet
facet normal 0.999992 0.000000 0.004104
outer loop
vertex 0.470554 -0.154509 -1.573867
vertex 0.475222 -0.154509 -2.711397
vertex 0.475222 0.154509 -2.711397
endloop
endfacet
facet normal 0.999992 0.000000 0.004104
outer loop
vertex 0.470554 -0.154509 -1.573867
vertex 0.475222 0.154509 -2.711397
vertex 0.470554 0.154509 -1.573867
endloop
endfacet
facet normal 0.809011 -0.587785 0.003304
outer loop
vertex 0.288956 -0.404509 -1.577527
vertex 0.293587 -0.404509 -2.711777
vertex 0.475222 -0.154509 -2.711397
endloop
endfacet
facet normal 0.809046 -0.587736 0.003320
outer loop
vertex 0.288956 -0.404509 -1.577527
vertex 0.475222 -0.154509 -2.711397
vertex 0.470554 -0.154509 -1.573867
endloop
endfacet
facet normal 0.309015 -0.951056 0.001252
outer loop
vertex -0.004877 -0.500000 -1.583448
vertex -0.000305 -0.500000 -2.712391
vertex 0.293587 -0.404509 -2.711777
endloop
endfacet
facet normal 0.309050 -0.951045 0.001262
outer loop
vertex -0.004877 -0.500000 -1.583448
vertex 0.293587 -0.404509 -2.711777
vertex 0.288956 -0.404509 -1.577527
endloop
endfacet
facet normal -0.309015 -0.951056 -0.001241
outer loop
vertex -0.298710 -0.404508 -1.589369
vertex -0.294197 -0.404509 -2.713006
vertex -0.000305 -0.500000 -2.712391
endloop
endfacet
facet normal -0.309051 -0.951045 -0.001252
outer loop
vertex -0.298710 -0.404508 -1.589369
vertex -0.000305 -0.500000 -2.712391
vertex -0.004877 -0.500000 -1.583448
endloop
endfacet
facet normal -0.809011 -0.587784 -0.003233
outer loop
vertex -0.480309 -0.154508 -1.593028
vertex -0.475832 -0.154508 -2.713386
vertex -0.294197 -0.404509 -2.713006
endloop
endfacet
facet normal -0.809047 -0.587735 -0.003250
outer loop
vertex -0.480309 -0.154508 -1.593028
vertex -0.294197 -0.404509 -2.713006
vertex -0.298710 -0.404508 -1.589369
endloop
endfacet
facet normal -0.999992 0.000000 -0.003996
outer loop
vertex -0.480309 0.154509 -1.593028
vertex -0.475832 0.154509 -2.713386
vertex -0.475832 -0.154508 -2.713386
endloop
endfacet
facet normal -0.999992 0.000000 -0.003996
outer loop
vertex -0.480309 0.154509 -1.593028
vertex -0.475832 -0.154508 -2.713386
vertex -0.480309 -0.154508 -1.593028
endloop
endfacet
facet normal -0.809011 0.587785 -0.003250
outer loop
vertex -0.298710 0.404509 -1.589369
vertex -0.294197 0.404509 -2.713006
vertex -0.475832 0.154509 -2.713386
endloop
endfacet
facet normal -0.809047 0.587735 -0.003233
outer loop
vertex -0.298710 0.404509 -1.589369
vertex -0.475832 0.154509 -2.713386
vertex -0.480309 0.154509 -1.593028
endloop
endfacet
facet normal -0.309015 0.951056 -0.001251
outer loop
vertex -0.004877 0.500000 -1.583448
vertex -0.000305 0.500000 -2.712391
vertex -0.294197 0.404509 -2.713006
endloop
endfacet
facet normal -0.309051 0.951045 -0.001241
outer loop
vertex -0.004877 0.500000 -1.583448
vertex -0.294197 0.404509 -2.713006
vertex -0.298710 0.404509 -1.589369
endloop
endfacet
facet normal 0.309017 0.951056 0.000041
outer loop
vertex 0.293587 0.404509 -2.711777
vertex 0.293892 0.404509 -5.000000
vertex 0.000000 0.500000 -5.000000
endloop
endfacet
facet normal 0.309018 0.951056 0.000041
outer loop
vertex 0.293587 0.404509 -2.711777
vertex 0.000000 0.500000 -5.000000
vertex -0.000305 0.500000 -2.712391
endloop
endfacet
facet normal 0.809017 0.587786 0.000108
outer loop
vertex 0.475222 0.154509 -2.711397
vertex 0.475528 0.154509 -5.000000
vertex 0.293892 0.404509 -5.000000
endloop
endfacet
facet normal 0.809017 0.587785 0.000108
outer loop
vertex 0.475222 0.154509 -2.711397
vertex 0.293892 0.404509 -5.000000
vertex 0.293587 0.404509 -2.711777
endloop
endfacet
facet normal 1.000000 0.000000 0.000134
outer loop
vertex 0.475222 -0.154509 -2.711397
vertex 0.475528 -0.154509 -5.000000
vertex 0.475528 0.154509 -5.000000
endloop
endfacet
facet normal 1.000000 0.000000 0.000134
outer loop
vertex 0.475222 -0.154509 -2.711397
vertex 0.475528 0.154509 -5.000000
vertex 0.475222 0.154509 -2.711397
endloop
endfacet
facet normal 0.809017 -0.587785 0.000108
outer loop
vertex 0.293587 -0.404509 -2.711777
vertex 0.293893 -0.404509 -5.000000
vertex 0.475528 -0.154509 -5.000000
endloop
endfacet
facet normal 0.809017 -0.587785 0.000108
outer loop
vertex 0.293587 -0.404509 -2.711777
vertex 0.475528 -0.154509 -5.000000
vertex 0.475222 -0.154509 -2.711397
endloop
endfacet
facet normal 0.309017 -0.951056 0.000041
outer loop
vertex -0.000305 -0.500000 -2.712391
vertex -0.000000 -0.500000 -5.000000
vertex 0.293893 -0.404509 -5.000000
endloop
endfacet
facet normal 0.309017 -0.951056 0.000041
outer loop
vertex -0.000305 -0.500000 -2.712391
vertex 0.293893 -0.404509 -5.000000
vertex 0.293587 -0.404509 -2.711777
endloop
endfacet
facet normal -0.309017 -0.951056 -0.000041
outer loop
vertex -0.294197 -0.404509 -2.713006
vertex -0.293893 -0.404508 -5.000000
vertex -0.000000 -0.500000 -5.000000
endloop
endfacet
facet normal -0.309018 -0.951056 -0.000041
outer loop
vertex -0.294197 -0.404509 -2.713006
vertex -0.000000 -0.500000 -5.000000
vertex -0.000305 -0.500000 -2.712391
endloop
endfacet
facet normal -0.809017 -0.587785 -0.000107
outer loop
vertex -0.475832 -0.154508 -2.713386
vertex -0.475528 -0.154508 -5.000000
vertex -0.293893 -0.404508 -5.000000
endloop
endfacet
facet normal -0.809018 -0.587784 -0.000108
outer loop
vertex -0.475832 -0.154508 -2.713386
vertex -0.293893 -0.404508 -5.000000
vertex -0.294197 -0.404509 -2.713006
endloop
endfacet
facet normal -1.000000 0.000000 -0.000133
outer loop
vertex -0.475832 0.154509 -2.713386
vertex -0.475528 0.154509 -5.000000
vertex -0.475528 -0.154508 -5.000000
endloop
endfacet
facet normal -1.000000 0.000000 -0.000133
outer loop
vertex -0.475832 0.154509 -2.713386
vertex -0.475528 -0.154508 -5.000000
vertex -0.475832 -0.154508 -2.713386
endloop
endfacet
facet normal -0.809017 0.587785 -0.000108
outer loop
vertex -0.294197 0.404509 -2.713006
vertex -0.293893 0.404509 -5.000000
vertex -0.475528 0.154509 -5.000000
endloop
endfacet
facet normal -0.809017 0.587785 -0.000108
outer loop
vertex -0.294197 0.404509 -2.713006
vertex -0.475528 0.154509 -5.000000
vertex -0.475832 0.154509 -2.713386
endloop
endfacet
facet normal -0.309017 0.951057 -0.000041
outer loop
vertex -0.000305 0.500000 -2.712391
vertex 0.000000 0.500000 -5.000000
vertex -0.293893 0.404509 -5.000000
endloop
endfacet
facet normal -0.309017 0.951056 -0.000041
outer loop
vertex -0.000305 0.500000 -2.712391
vertex -0.293893 0.404509 -5.000000
vertex -0.294197 0.404509 -2.713006
endloop
endfacet
endsolid Exported from Blender-3.2.1
